<svg width="422" height="243" viewBox="0 0 422 243" fill="none" xmlns="http://www.w3.org/2000/svg">
<circle cx="313" cy="109" r="109" fill="#403E9C"/>
<circle cx="311" cy="36" r="25" fill="white"/>
<circle cx="64.5" cy="178.5" r="64.5" fill="#403E9C"/>
<circle cx="64" cy="204" r="25" fill="white"/>
<path d="M16 164.444C13.2386 164.444 11 162.206 11 159.444V90C11 87.2386 13.2386 85 16 85H42.362C44.3402 85 46.1324 86.1663 46.9336 87.9749L70.3592 140.858C72.1231 144.84 77.7809 144.82 79.5166 140.826L102.468 88.0073C103.261 86.1813 105.063 85 107.054 85H111.357C114.119 85 116.357 87.2386 116.357 90V159.831C116.357 162.379 114.292 164.444 111.744 164.444V164.444C109.196 164.444 107.13 162.379 107.13 159.831V123.259C107.13 117.839 99.7125 116.293 97.5466 121.261L80.0302 161.443C79.2355 163.266 77.4357 164.444 75.4468 164.444H73.8112C71.8328 164.444 70.0404 163.278 69.2394 161.469L51.273 120.894C49.085 115.953 41.7012 117.515 41.7012 122.919V159.444C41.7012 162.206 39.4626 164.444 36.7012 164.444H16Z" fill="#0F0038"/>
<path d="M141.802 135.056C141.802 149.093 147.673 156.111 159.417 156.111C171.161 156.111 177.033 149.093 177.033 135.056C177.033 121.315 171.161 114.444 159.417 114.444C147.673 114.444 141.802 121.315 141.802 135.056ZM131.456 135.278C131.456 115.833 140.776 106.111 159.417 106.111C178.058 106.111 187.378 115.833 187.378 135.278C187.378 154.685 178.058 164.389 159.417 164.389C140.851 164.389 131.531 154.685 131.456 135.278Z" fill="#0F0038"/>
<path d="M208.908 135.056C208.908 149.093 214.78 156.111 226.524 156.111C238.267 156.111 244.139 149.093 244.139 135.056C244.139 121.315 238.267 114.444 226.524 114.444C214.78 114.444 208.908 121.315 208.908 135.056ZM198.563 135.278C198.563 115.833 207.883 106.111 226.524 106.111C245.164 106.111 254.485 115.833 254.485 135.278C254.485 154.685 245.164 164.389 226.524 164.389C207.957 164.389 198.637 154.685 198.563 135.278Z" fill="#0F0038"/>
<path d="M307.89 121.149C307.89 119.225 306.797 117.435 304.98 116.801C301.536 115.6 297.734 115 293.574 115C281.756 115 275.847 121.241 275.847 133.722C275.847 148.5 281.756 155.889 293.574 155.889C297.53 155.889 301.163 155.497 304.471 154.712C306.545 154.22 307.89 152.293 307.89 150.161V121.149ZM318.236 157.321C318.236 159.483 316.851 161.419 314.758 161.958C308.316 163.615 300.696 164.444 291.896 164.444C274.411 164.444 265.669 154.333 265.669 134.111C265.669 115.444 274.952 106.111 293.518 106.111C295.996 106.111 298.408 106.332 300.752 106.775C304.247 107.434 307.89 104.988 307.89 101.431V90C307.89 87.2386 310.129 85 312.89 85H313.236C315.997 85 318.236 87.2386 318.236 90V157.321Z" fill="#0F0038"/>
<path d="M330.624 112.9C329.369 109.626 331.786 106.111 335.293 106.111H335.763C337.864 106.111 339.741 107.425 340.461 109.398L351.251 138.995C352.84 143.353 358.992 143.386 360.628 139.046L371.819 109.348C372.553 107.4 374.441 106.111 376.522 106.111V106.111C380.071 106.111 382.541 109.704 381.206 112.992L359.618 166.167C355.863 175.363 350.479 181.558 343.465 184.752C341.59 185.606 339.45 184.703 338.463 182.894V182.894C337.24 180.653 338.23 177.873 340.383 176.5C344.248 174.033 347.304 170.754 349.551 166.663C350.201 165.48 350.23 164.066 349.747 162.805L330.624 112.9Z" fill="#0F0038"/>
</svg>
